<svg width="143" height="33" viewBox="0 0 143 33" fill="none" xmlns="http://www.w3.org/2000/svg">
<path d="M30.2971 2.42102C30.7984 1.12273 32.2527 0.404347 33.6143 0.897695C34.9329 1.38672 35.6628 2.81916 35.1574 4.16938L25.2405 30.8708C25.0994 31.745 24.4893 32.5326 23.5667 32.8658C23.2458 32.9567 22.9735 33 22.6571 33C22.3804 33 22.0639 32.9567 21.7916 32.8658C21.6071 32.7923 21.4313 32.7013 21.2688 32.5976C21.2315 32.5731 21.1965 32.5485 21.1619 32.524C21.1477 32.514 21.1335 32.5037 21.1194 32.4937C20.7986 32.2556 20.535 31.9484 20.3549 31.5719L20.3022 31.4551C20.2846 31.4161 20.2627 31.3771 20.2494 31.3381L14.2962 15.2178L10.1969 26.3355C10.0563 27.214 9.44567 28.0059 8.51864 28.3391C8.15398 28.43 7.88152 28.4733 7.56525 28.4733C7.43339 28.4733 7.30154 28.4647 7.16982 28.443C7.01161 28.4214 6.85341 28.3867 6.70408 28.3391C6.51953 28.2656 6.34385 28.1748 6.18122 28.0709C6.15702 28.0535 6.13176 28.0362 6.10649 28.0188C6.08122 28.0016 6.05595 27.9843 6.03189 27.967C5.71118 27.7332 5.44746 27.4216 5.26735 27.0452L5.21466 26.9284C5.20808 26.9137 5.20082 26.8997 5.1937 26.8859C5.18187 26.8628 5.17017 26.8402 5.16197 26.8159L0.162009 13.2054C-0.334507 11.9072 0.346551 10.4314 1.70854 9.93809C3.02658 9.44907 4.52487 10.1199 5.02569 11.4614L7.6092 18.4288L11.8445 6.93905C12.2223 5.96534 13.1362 5.31619 14.1424 5.26427C15.254 5.18203 16.3435 5.83119 16.7566 6.93905L22.6879 23.0076L30.2971 2.42102Z" fill="#F1B924"/>
<path d="M50.3068 24H45.598V9.45455H50.456C51.8812 9.45455 53.1051 9.74574 54.1278 10.3281C55.1506 10.9058 55.9342 11.7367 56.4787 12.821C57.0279 13.9006 57.3026 15.1955 57.3026 16.706C57.3026 18.2211 57.0256 19.5232 56.4716 20.6122C55.9223 21.7012 55.1269 22.5393 54.0852 23.1264C53.0436 23.7088 51.7841 24 50.3068 24ZM47.7926 22.0824H50.1861C51.294 22.0824 52.215 21.8741 52.9489 21.4574C53.6828 21.036 54.232 20.4276 54.5966 19.6321C54.9612 18.8319 55.1435 17.8565 55.1435 16.706C55.1435 15.5649 54.9612 14.5966 54.5966 13.8011C54.2367 13.0057 53.6993 12.402 52.9844 11.9901C52.2694 11.5781 51.3816 11.3722 50.321 11.3722H47.7926V22.0824ZM64.5629 24.2202C63.488 24.2202 62.5624 23.9905 61.7859 23.5312C61.0141 23.0672 60.4175 22.4162 59.9961 21.5781C59.5794 20.7353 59.3711 19.7481 59.3711 18.6165C59.3711 17.4991 59.5794 16.5142 59.9961 15.6619C60.4175 14.8097 61.0046 14.1444 61.7575 13.6662C62.515 13.188 63.4004 12.9489 64.4137 12.9489C65.0292 12.9489 65.6258 13.0507 66.2035 13.2543C66.7811 13.4579 67.2996 13.7775 67.7589 14.2131C68.2182 14.6487 68.5804 15.2145 68.8455 15.9105C69.1107 16.6018 69.2433 17.4422 69.2433 18.4318V19.1847H60.5714V17.5938H67.1623C67.1623 17.035 67.0487 16.5402 66.8214 16.1094C66.5941 15.6738 66.2745 15.3305 65.8626 15.0795C65.4554 14.8286 64.9772 14.7031 64.4279 14.7031C63.8313 14.7031 63.3105 14.8499 62.8654 15.1435C62.4251 15.4323 62.0842 15.8111 61.8427 16.2798C61.6059 16.7438 61.4876 17.2481 61.4876 17.7926V19.0355C61.4876 19.7647 61.6154 20.3849 61.8711 20.8963C62.1315 21.4077 62.4937 21.7983 62.9577 22.0682C63.4218 22.3333 63.9639 22.4659 64.5842 22.4659C64.9866 22.4659 65.3536 22.4091 65.685 22.2955C66.0165 22.1771 66.3029 22.0019 66.5444 21.7699C66.7859 21.5379 66.9705 21.2514 67.0984 20.9105L69.1083 21.2727C68.9473 21.8646 68.6585 22.383 68.2418 22.8281C67.8299 23.2685 67.3114 23.6117 66.6864 23.858C66.0662 24.0994 65.3583 24.2202 64.5629 24.2202ZM80.6193 13.0909L76.6634 24H74.3906L70.4276 13.0909H72.7074L75.4702 21.4858H75.5838L78.3395 13.0909H80.6193ZM86.9457 24.2202C85.8709 24.2202 84.9452 23.9905 84.1687 23.5312C83.3969 23.0672 82.8003 22.4162 82.3789 21.5781C81.9622 20.7353 81.7539 19.7481 81.7539 18.6165C81.7539 17.4991 81.9622 16.5142 82.3789 15.6619C82.8003 14.8097 83.3874 14.1444 84.1403 13.6662C84.8978 13.188 85.7833 12.9489 86.7965 12.9489C87.4121 12.9489 88.0086 13.0507 88.5863 13.2543C89.1639 13.4579 89.6824 13.7775 90.1417 14.2131C90.601 14.6487 90.9632 15.2145 91.2283 15.9105C91.4935 16.6018 91.6261 17.4422 91.6261 18.4318V19.1847H82.9542V17.5938H89.5451C89.5451 17.035 89.4315 16.5402 89.2042 16.1094C88.9769 15.6738 88.6573 15.3305 88.2454 15.0795C87.8382 14.8286 87.36 14.7031 86.8107 14.7031C86.2141 14.7031 85.6933 14.8499 85.2482 15.1435C84.8079 15.4323 84.467 15.8111 84.2255 16.2798C83.9888 16.7438 83.8704 17.2481 83.8704 17.7926V19.0355C83.8704 19.7647 83.9982 20.3849 84.2539 20.8963C84.5143 21.4077 84.8765 21.7983 85.3406 22.0682C85.8046 22.3333 86.3467 22.4659 86.967 22.4659C87.3694 22.4659 87.7364 22.4091 88.0678 22.2955C88.3993 22.1771 88.6857 22.0019 88.9272 21.7699C89.1687 21.5379 89.3533 21.2514 89.4812 20.9105L91.4911 21.2727C91.3301 21.8646 91.0413 22.383 90.6246 22.8281C90.2127 23.2685 89.6942 23.6117 89.0692 23.858C88.449 24.0994 87.7411 24.2202 86.9457 24.2202ZM96.1058 9.45455V24H93.9822V9.45455H96.1058ZM103.558 24.2202C102.535 24.2202 101.643 23.9858 100.88 23.517C100.118 23.0483 99.5262 22.3925 99.1048 21.5497C98.6834 20.7069 98.4727 19.7221 98.4727 18.5952C98.4727 17.4635 98.6834 16.474 99.1048 15.6264C99.5262 14.7789 100.118 14.1207 100.88 13.652C101.643 13.1832 102.535 12.9489 103.558 12.9489C104.581 12.9489 105.473 13.1832 106.235 13.652C106.998 14.1207 107.59 14.7789 108.011 15.6264C108.432 16.474 108.643 17.4635 108.643 18.5952C108.643 19.7221 108.432 20.7069 108.011 21.5497C107.59 22.3925 106.998 23.0483 106.235 23.517C105.473 23.9858 104.581 24.2202 103.558 24.2202ZM103.565 22.4375C104.228 22.4375 104.777 22.2623 105.213 21.9119C105.648 21.5616 105.97 21.0952 106.179 20.5128C106.392 19.9304 106.498 19.2888 106.498 18.5881C106.498 17.892 106.392 17.2528 106.179 16.6705C105.97 16.0833 105.648 15.6122 105.213 15.2571C104.777 14.902 104.228 14.7244 103.565 14.7244C102.897 14.7244 102.343 14.902 101.903 15.2571C101.467 15.6122 101.143 16.0833 100.93 16.6705C100.722 17.2528 100.618 17.892 100.618 18.5881C100.618 19.2888 100.722 19.9304 100.93 20.5128C101.143 21.0952 101.467 21.5616 101.903 21.9119C102.343 22.2623 102.897 22.4375 103.565 22.4375ZM111.013 28.0909V13.0909H113.087V14.8594H113.265C113.388 14.6321 113.566 14.3693 113.798 14.071C114.03 13.7727 114.352 13.5123 114.763 13.2898C115.175 13.0625 115.72 12.9489 116.397 12.9489C117.278 12.9489 118.064 13.1714 118.755 13.6165C119.446 14.0616 119.988 14.7031 120.381 15.5412C120.779 16.3793 120.978 17.3878 120.978 18.5668C120.978 19.7457 120.781 20.7566 120.388 21.5994C119.996 22.4375 119.456 23.0838 118.769 23.5384C118.083 23.9882 117.299 24.2131 116.418 24.2131C115.755 24.2131 115.213 24.1018 114.792 23.8793C114.375 23.6567 114.049 23.3963 113.812 23.098C113.575 22.7997 113.393 22.5346 113.265 22.3026H113.137V28.0909H111.013ZM113.094 18.5455C113.094 19.3125 113.206 19.9848 113.428 20.5625C113.651 21.1402 113.973 21.5923 114.394 21.919C114.816 22.241 115.332 22.402 115.942 22.402C116.577 22.402 117.107 22.2339 117.533 21.8977C117.96 21.5568 118.281 21.0952 118.499 20.5128C118.722 19.9304 118.833 19.2746 118.833 18.5455C118.833 17.8258 118.724 17.1795 118.506 16.6065C118.293 16.0336 117.971 15.5814 117.54 15.25C117.114 14.9186 116.582 14.7528 115.942 14.7528C115.327 14.7528 114.806 14.9115 114.38 15.2287C113.959 15.5459 113.639 15.9886 113.421 16.5568C113.203 17.125 113.094 17.7879 113.094 18.5455ZM128.059 24.2202C126.984 24.2202 126.058 23.9905 125.282 23.5312C124.51 23.0672 123.914 22.4162 123.492 21.5781C123.076 20.7353 122.867 19.7481 122.867 18.6165C122.867 17.4991 123.076 16.5142 123.492 15.6619C123.914 14.8097 124.501 14.1444 125.254 13.6662C126.011 13.188 126.897 12.9489 127.91 12.9489C128.525 12.9489 129.122 13.0507 129.7 13.2543C130.277 13.4579 130.796 13.7775 131.255 14.2131C131.714 14.6487 132.076 15.2145 132.342 15.9105C132.607 16.6018 132.739 17.4422 132.739 18.4318V19.1847H124.067V17.5938H130.658C130.658 17.035 130.545 16.5402 130.317 16.1094C130.09 15.6738 129.771 15.3305 129.359 15.0795C128.951 14.8286 128.473 14.7031 127.924 14.7031C127.327 14.7031 126.807 14.8499 126.362 15.1435C125.921 15.4323 125.58 15.8111 125.339 16.2798C125.102 16.7438 124.984 17.2481 124.984 17.7926V19.0355C124.984 19.7647 125.112 20.3849 125.367 20.8963C125.628 21.4077 125.99 21.7983 126.454 22.0682C126.918 22.3333 127.46 22.4659 128.08 22.4659C128.483 22.4659 128.85 22.4091 129.181 22.2955C129.513 22.1771 129.799 22.0019 130.04 21.7699C130.282 21.5379 130.467 21.2514 130.594 20.9105L132.604 21.2727C132.443 21.8646 132.155 22.383 131.738 22.8281C131.326 23.2685 130.808 23.6117 130.183 23.858C129.562 24.0994 128.854 24.2202 128.059 24.2202ZM135.096 24V13.0909H137.148V14.8239H137.262C137.461 14.2367 137.811 13.7751 138.313 13.4389C138.819 13.098 139.392 12.9276 140.032 12.9276C140.164 12.9276 140.32 12.9323 140.5 12.9418C140.685 12.9512 140.829 12.9631 140.934 12.9773V15.0085C140.848 14.9848 140.697 14.9588 140.479 14.9304C140.261 14.8973 140.043 14.8807 139.826 14.8807C139.324 14.8807 138.876 14.9872 138.483 15.2003C138.095 15.4086 137.787 15.6998 137.56 16.0739C137.333 16.4432 137.219 16.8646 137.219 17.3381V24H135.096Z" fill="#1D252E"/>
</svg>
