<svg width="143" height="33" viewBox="0 0 143 33" fill="none" xmlns="http://www.w3.org/2000/svg">
<path d="M30.2971 1.67978C30.7984 0.381489 32.2527 -0.336894 33.6143 0.156453C34.9329 0.645474 35.6628 2.07792 35.1574 3.42814L25.2405 30.1295C25.0994 31.0037 24.4893 31.7914 23.5667 32.1246C23.2458 32.2155 22.9735 32.2587 22.6571 32.2587C22.3804 32.2587 22.0639 32.2155 21.7916 32.1246C21.6071 32.0511 21.4313 31.9601 21.2688 31.8563C21.2315 31.8319 21.1965 31.8073 21.1619 31.7828C21.1477 31.7727 21.1335 31.7625 21.1194 31.7524C20.7986 31.5144 20.535 31.2071 20.3549 30.8306L20.3022 30.7138C20.2846 30.6748 20.2627 30.6359 20.2494 30.5969L14.2962 14.4765L10.1969 25.5942C10.0563 26.4727 9.44567 27.2647 8.51864 27.5979C8.15398 27.6888 7.88152 27.732 7.56525 27.732C7.43339 27.732 7.30154 27.7234 7.16982 27.7018C7.01161 27.6802 6.85341 27.6455 6.70408 27.5979C6.51953 27.5244 6.34385 27.4335 6.18122 27.3296C6.15702 27.3123 6.13176 27.2949 6.10649 27.2776C6.08122 27.2604 6.05595 27.2431 6.03189 27.2257C5.71118 26.992 5.44746 26.6804 5.26735 26.3039L5.21466 26.1871C5.20808 26.1725 5.20082 26.1585 5.1937 26.1446C5.18187 26.1215 5.17017 26.0989 5.16197 26.0746L0.162009 12.4642C-0.334507 11.1659 0.346551 9.6902 1.70854 9.19685C3.02658 8.70783 4.52487 9.37861 5.02569 10.7202L7.6092 17.6876L11.8445 6.19781C12.2223 5.2241 13.1362 4.57495 14.1424 4.52303C15.254 4.44079 16.3435 5.08995 16.7566 6.19781L22.6879 22.2663L30.2971 1.67978Z" fill="#F1B924"/>
<path d="M50.3068 23.2588H45.598V8.7133H50.456C51.8812 8.7133 53.1051 9.0045 54.1278 9.58688C55.1506 10.1645 55.9342 10.9955 56.4787 12.0798C57.0279 13.1593 57.3026 14.4543 57.3026 15.9647C57.3026 17.4799 57.0256 18.782 56.4716 19.871C55.9223 20.96 55.1269 21.7981 54.0852 22.3852C53.0436 22.9676 51.7841 23.2588 50.3068 23.2588ZM47.7926 21.3411H50.1861C51.294 21.3411 52.215 21.1328 52.9489 20.7161C53.6828 20.2947 54.232 19.6863 54.5966 18.8909C54.9612 18.0907 55.1435 17.1153 55.1435 15.9647C55.1435 14.8236 54.9612 13.8553 54.5966 13.0599C54.2367 12.2644 53.6993 11.6607 52.9844 11.2488C52.2694 10.8369 51.3816 10.6309 50.321 10.6309H47.7926V21.3411ZM64.5629 23.4789C63.488 23.4789 62.5624 23.2493 61.7859 22.79C61.0141 22.326 60.4175 21.675 59.9961 20.8369C59.5794 19.9941 59.3711 19.0069 59.3711 17.8752C59.3711 16.7578 59.5794 15.773 59.9961 14.9207C60.4175 14.0684 61.0046 13.4032 61.7575 12.925C62.515 12.4467 63.4004 12.2076 64.4137 12.2076C65.0292 12.2076 65.6258 12.3094 66.2035 12.513C66.7811 12.7166 67.2996 13.0362 67.7589 13.4718C68.2182 13.9074 68.5804 14.4732 68.8455 15.1693C69.1107 15.8606 69.2433 16.701 69.2433 17.6906V18.4434H60.5714V16.8525H67.1623C67.1623 16.2938 67.0487 15.799 66.8214 15.3681C66.5941 14.9325 66.2745 14.5893 65.8626 14.3383C65.4554 14.0874 64.9772 13.9619 64.4279 13.9619C63.8313 13.9619 63.3105 14.1087 62.8654 14.4022C62.4251 14.6911 62.0842 15.0698 61.8427 15.5386C61.6059 16.0026 61.4876 16.5069 61.4876 17.0514V18.2943C61.4876 19.0234 61.6154 19.6437 61.8711 20.1551C62.1315 20.6664 62.4937 21.0571 62.9577 21.3269C63.4218 21.5921 63.9639 21.7247 64.5842 21.7247C64.9866 21.7247 65.3536 21.6678 65.685 21.5542C66.0165 21.4358 66.3029 21.2607 66.5444 21.0286C66.7859 20.7966 66.9705 20.5102 67.0984 20.1693L69.1083 20.5315C68.9473 21.1233 68.6585 21.6418 68.2418 22.0869C67.8299 22.5272 67.3114 22.8705 66.6864 23.1167C66.0662 23.3582 65.3583 23.4789 64.5629 23.4789ZM80.6193 12.3497L76.6634 23.2588H74.3906L70.4276 12.3497H72.7074L75.4702 20.7446H75.5838L78.3395 12.3497H80.6193ZM86.9457 23.4789C85.8709 23.4789 84.9452 23.2493 84.1687 22.79C83.3969 22.326 82.8003 21.675 82.3789 20.8369C81.9622 19.9941 81.7539 19.0069 81.7539 17.8752C81.7539 16.7578 81.9622 15.773 82.3789 14.9207C82.8003 14.0684 83.3874 13.4032 84.1403 12.925C84.8978 12.4467 85.7833 12.2076 86.7965 12.2076C87.4121 12.2076 88.0086 12.3094 88.5863 12.513C89.1639 12.7166 89.6824 13.0362 90.1417 13.4718C90.601 13.9074 90.9632 14.4732 91.2283 15.1693C91.4935 15.8606 91.6261 16.701 91.6261 17.6906V18.4434H82.9542V16.8525H89.5451C89.5451 16.2938 89.4315 15.799 89.2042 15.3681C88.9769 14.9325 88.6573 14.5893 88.2454 14.3383C87.8382 14.0874 87.36 13.9619 86.8107 13.9619C86.2141 13.9619 85.6933 14.1087 85.2482 14.4022C84.8079 14.6911 84.467 15.0698 84.2255 15.5386C83.9888 16.0026 83.8704 16.5069 83.8704 17.0514V18.2943C83.8704 19.0234 83.9982 19.6437 84.2539 20.1551C84.5143 20.6664 84.8765 21.0571 85.3406 21.3269C85.8046 21.5921 86.3467 21.7247 86.967 21.7247C87.3694 21.7247 87.7364 21.6678 88.0678 21.5542C88.3993 21.4358 88.6857 21.2607 88.9272 21.0286C89.1687 20.7966 89.3533 20.5102 89.4812 20.1693L91.4911 20.5315C91.3301 21.1233 91.0413 21.6418 90.6246 22.0869C90.2127 22.5272 89.6942 22.8705 89.0692 23.1167C88.449 23.3582 87.7411 23.4789 86.9457 23.4789ZM96.1058 8.7133V23.2588H93.9822V8.7133H96.1058ZM103.558 23.4789C102.535 23.4789 101.643 23.2446 100.88 22.7758C100.118 22.3071 99.5262 21.6513 99.1048 20.8085C98.6834 19.9657 98.4727 18.9808 98.4727 17.8539C98.4727 16.7223 98.6834 15.7327 99.1048 14.8852C99.5262 14.0376 100.118 13.3795 100.88 12.9107C101.643 12.442 102.535 12.2076 103.558 12.2076C104.581 12.2076 105.473 12.442 106.235 12.9107C106.998 13.3795 107.59 14.0376 108.011 14.8852C108.432 15.7327 108.643 16.7223 108.643 17.8539C108.643 18.9808 108.432 19.9657 108.011 20.8085C107.59 21.6513 106.998 22.3071 106.235 22.7758C105.473 23.2446 104.581 23.4789 103.558 23.4789ZM103.565 21.6963C104.228 21.6963 104.777 21.5211 105.213 21.1707C105.648 20.8203 105.97 20.3539 106.179 19.7715C106.392 19.1892 106.498 18.5476 106.498 17.8468C106.498 17.1508 106.392 16.5116 106.179 15.9292C105.97 15.3421 105.648 14.871 105.213 14.5159C104.777 14.1607 104.228 13.9832 103.565 13.9832C102.897 13.9832 102.343 14.1607 101.903 14.5159C101.467 14.871 101.143 15.3421 100.93 15.9292C100.722 16.5116 100.618 17.1508 100.618 17.8468C100.618 18.5476 100.722 19.1892 100.93 19.7715C101.143 20.3539 101.467 20.8203 101.903 21.1707C102.343 21.5211 102.897 21.6963 103.565 21.6963ZM111.013 27.3497V12.3497H113.087V14.1181H113.265C113.388 13.8909 113.566 13.6281 113.798 13.3298C114.03 13.0315 114.352 12.7711 114.763 12.5485C115.175 12.3213 115.72 12.2076 116.397 12.2076C117.278 12.2076 118.064 12.4302 118.755 12.8752C119.446 13.3203 119.988 13.9619 120.381 14.8C120.779 15.638 120.978 16.6465 120.978 17.8255C120.978 19.0045 120.781 20.0154 120.388 20.8582C119.996 21.6963 119.456 22.3426 118.769 22.7971C118.083 23.2469 117.299 23.4718 116.418 23.4718C115.755 23.4718 115.213 23.3606 114.792 23.138C114.375 22.9155 114.049 22.6551 113.812 22.3568C113.575 22.0585 113.393 21.7933 113.265 21.5613H113.137V27.3497H111.013ZM113.094 17.8042C113.094 18.5713 113.206 19.2436 113.428 19.8213C113.651 20.3989 113.973 20.8511 114.394 21.1778C114.816 21.4998 115.332 21.6607 115.942 21.6607C116.577 21.6607 117.107 21.4927 117.533 21.1565C117.96 20.8156 118.281 20.3539 118.499 19.7715C118.722 19.1892 118.833 18.5334 118.833 17.8042C118.833 17.0845 118.724 16.4382 118.506 15.8653C118.293 15.2924 117.971 14.8402 117.54 14.5088C117.114 14.1773 116.582 14.0116 115.942 14.0116C115.327 14.0116 114.806 14.1702 114.38 14.4875C113.959 14.8047 113.639 15.2474 113.421 15.8156C113.203 16.3838 113.094 17.0466 113.094 17.8042ZM128.059 23.4789C126.984 23.4789 126.058 23.2493 125.282 22.79C124.51 22.326 123.914 21.675 123.492 20.8369C123.076 19.9941 122.867 19.0069 122.867 17.8752C122.867 16.7578 123.076 15.773 123.492 14.9207C123.914 14.0684 124.501 13.4032 125.254 12.925C126.011 12.4467 126.897 12.2076 127.91 12.2076C128.525 12.2076 129.122 12.3094 129.7 12.513C130.277 12.7166 130.796 13.0362 131.255 13.4718C131.714 13.9074 132.076 14.4732 132.342 15.1693C132.607 15.8606 132.739 16.701 132.739 17.6906V18.4434H124.067V16.8525H130.658C130.658 16.2938 130.545 15.799 130.317 15.3681C130.09 14.9325 129.771 14.5893 129.359 14.3383C128.951 14.0874 128.473 13.9619 127.924 13.9619C127.327 13.9619 126.807 14.1087 126.362 14.4022C125.921 14.6911 125.58 15.0698 125.339 15.5386C125.102 16.0026 124.984 16.5069 124.984 17.0514V18.2943C124.984 19.0234 125.112 19.6437 125.367 20.1551C125.628 20.6664 125.99 21.0571 126.454 21.3269C126.918 21.5921 127.46 21.7247 128.08 21.7247C128.483 21.7247 128.85 21.6678 129.181 21.5542C129.513 21.4358 129.799 21.2607 130.04 21.0286C130.282 20.7966 130.467 20.5102 130.594 20.1693L132.604 20.5315C132.443 21.1233 132.155 21.6418 131.738 22.0869C131.326 22.5272 130.808 22.8705 130.183 23.1167C129.562 23.3582 128.854 23.4789 128.059 23.4789ZM135.096 23.2588V12.3497H137.148V14.0826H137.262C137.461 13.4955 137.811 13.0339 138.313 12.6977C138.819 12.3568 139.392 12.1863 140.032 12.1863C140.164 12.1863 140.32 12.191 140.5 12.2005C140.685 12.21 140.829 12.2218 140.934 12.236V14.2673C140.848 14.2436 140.697 14.2176 140.479 14.1892C140.261 14.156 140.043 14.1394 139.826 14.1394C139.324 14.1394 138.876 14.246 138.483 14.459C138.095 14.6674 137.787 14.9586 137.56 15.3326C137.333 15.7019 137.219 16.1233 137.219 16.5968V23.2588H135.096Z" fill="#EDEFF0"/>
</svg>
